<?xml version="1.0" encoding="utf-8"?>
<!-- Generator: Adobe Illustrator 16.0.0, SVG Export Plug-In . SVG Version: 6.00 Build 0)  -->
<!DOCTYPE svg PUBLIC "-//W3C//DTD SVG 1.1//EN" "http://www.w3.org/Graphics/SVG/1.1/DTD/svg11.dtd">
<svg version="1.1" id="Layer_1" xmlns="http://www.w3.org/2000/svg" xmlns:xlink="http://www.w3.org/1999/xlink" x="0px" y="0px"
	 width="864px" height="864px" viewBox="0 0 864 864" enable-background="new 0 0 864 864" xml:space="preserve">
<path fill-rule="evenodd" clip-rule="evenodd" fill="#C2B59B" d="M684.912,526.289c-12.518,7.058-22.521,2.324-32.28-3.414
	c-7.134-4.194-13.565-3.284-20.216,1.347c-10.755,7.489-15.262,7.425-25.545-0.959c-4.433-3.613-8.14-4.494-13.004-1.427
	c-3.273,2.064-6.955,3.467-10.327,5.389c-10.731,6.114-20.675,5.836-29.904-2.705c-6.558-6.068-11.917-5.421-17.207,0.411
	c-10.821,11.93-25.965,9.634-37.347,1.887c-11.504-7.831-11.869-7.857-21.777,1.193c-9.881,9.027-21.141,10.393-32.353,4.804
	c-8.917-4.443-15.934-3.267-23.363,2.042c-11.656,8.329-22.734,6.613-33.342-2.139c-1.591-1.312-3.246-2.556-4.933-3.743
	c-10.71-7.54-15.025-7.287-24.801,1.403c-11.99,10.658-24.05,11.671-37.63,3.158c-1.318-0.825-2.659-1.619-3.942-2.497
	c-13.821-9.462-13.819-9.465-25.564,2.264c-6.44,6.432-17.392,7.124-26.536,1.106c-5.122-3.371-9.697-7.571-14.736-11.571
	c-1.09,1.369-2.055,2.559-2.997,3.766c-8.426,10.787-17.112,12.119-28.204,4.277c-1.691-1.195-3.64-2.267-4.846-3.865
	c-7.194-9.536-15.662-6.659-23.833-2.186c-4.695,2.57-8.247,2.547-12.866-0.251c-5.162-3.126-11.079-5.008-18.136-6.138
	c6.601,16.416,13.919,32.585,19.648,49.299c10.812,31.54,20.445,63.481,31.044,95.096c16.956,50.574,30.74,102.015,42.858,153.923
	c1.252,5.366,3.021,8.169,9.521,8.226c89.281,0.781,178.557,2.234,267.838,2.693c21.967,0.114,43.959-2.623,65.909-4.425
	c2.039-0.168,5.081-2.747,5.594-4.739c12.779-49.571,24.174-99.529,38.151-148.753c13.205-46.504,29.076-92.25,43.766-138.332
	C683.915,530.295,684.166,529.127,684.912,526.289z"/>
<path opacity="0.3" fill-rule="evenodd" clip-rule="evenodd" fill="#EC008C" d="M711.305,335.6
	c-24.508-21.536-53.187-35.904-84.791-41.983l-6.754-17.045c7.837-4.154,13.214-12.747,13.043-23.44
	c-0.313-19.698-7.463-36.687-25.762-45.634c-14.534-7.107-30.264-11.908-45.707-16.989c-35.47-11.672-68.866-27.409-99.114-49.427
	c-12.563-9.145-22.654-20.568-29.069-34.911c-4.397-9.834-5.574-19.636,2.337-28.331c6.372-7.003,19.249-8.692,29.723-3.274
	c6.289,3.254,11.675,8.254,18.135,12.956c4.769-5.954,5.973-12.903,3.549-20.716c-8.908-28.709-42.44-39.995-69.327-23.414
	c-15.475,9.543-24.066,23.921-29.313,40.704c-3.706,11.854-7.064,23.815-10.673,35.7c-5.758,18.962-17.516,32.532-35.805,40.616
	c-12.087,5.343-23.947,11.229-35.711,17.258c-4.79,2.454-9.506,5.435-13.464,9.044c-1.294,1.18-2.321,2.398-3.117,3.637l-0.01-0.001
	l-23.804,13.232c-4.126-1.747-9.266-2.579-13.566-1.835c-19.871,3.434-36.549,12.561-45.056,31.758
	c-7.895,17.816-3.802,34.414,6.225,49.604l-8.884,8.897c-1.211-0.382-2.47-0.532-3.438-0.303
	c-12.025,2.845-24.566,4.778-35.732,9.728c-21.312,9.448-27.74,29.045-29.156,50.413c-1.243,18.76,1.158,33.501,8.153,45.341
	l-5.492,11.065c-2.433-1.161-5.584-1.768-7.808-1.104c-10.926,3.268-20.413,16.442-20.752,28.528
	c-0.358,12.758,6.277,21.715,17.209,27.367c16.403,8.481,34.423,9.72,52.301,9.233c24.154-0.656,47.537,2.541,70.404,10.039
	c15.49,5.077,31.406,6.997,47.556,5.575c6.314-0.557,12.562-1.866,18.813-3.147l0,0l40.781-4.017
	c28.355,8.769,57.054,15.017,83.308,15.315c32.028-0.163,59.023-5.2,83.834-19.217c14.88-8.407,29.343-6.609,43.603,1.438
	c14.173,7.996,29.246,10.444,45.008,6.597c4.32-1.055,9.186-3.293,11.989-6.548c1.258-1.46,2.438-2.948,3.548-4.461l35.028,2.711
	v-0.001c4.333,3.729,10.39,6.081,18.288,7.217c3.331,0.479,6.685,0.803,8.061,0.966c31.297-0.425,50.507-16.039,56.604-48.478
	C753.958,396.598,741.804,362.4,711.305,335.6z"/>
<g>
	<path fill-rule="evenodd" clip-rule="evenodd" d="M93.833,439.791c12.149,27.351,36.249,37.021,63.136,41.856
		c10.667,1.918,21.713,2.796,32.543,2.513c23.694-0.618,46.296,4.222,68.808,10.845c22.521,6.624,45.469,7.491,68.472,2.369
		c3.736-0.832,8.014-1.794,10.719-4.189c6.481-5.741,12.735-4.354,19.957-1.979c34.702,11.407,70.132,18.766,106.927,16.869
		c24.852-1.28,49.071-6.112,70.762-18.669c12.296-7.116,23.278-7.361,34.902-0.041c10.927,6.881,23.181,9.039,35.702,9.303
		c17.824,0.374,34.468-2.463,43.036-21.804c13.031,12.843,28.609,18.3,46.966,20.168c-3.944,2.931-6.975,4.552-9.189,6.931
		c-11.536,12.399-23.3,15.661-39.425,6.483c-12.581-7.16-16.787-4.765-33.213,6.053c-6.269-5.266-12.484-12.07-22.059-9.524
		c-5.692,1.514-11.664,3.287-16.475,6.496c-7.756,5.176-13.613,6.245-21.764-0.366c-11.288-9.154-19.772-7.739-32.207,2.074
		c-10.144,8.006-10.862,8.031-21.613,0.775c-14.632-9.876-21.914-9.903-35.409,0.947c-8.083,6.499-16.171,9.008-25.504,3.1
		c-9.334-5.908-18.304-4.552-26.736,1.684c-8.306,6.143-15.836,7.297-24.128-0.498c-3.822-3.594-9.198-5.812-14.205-7.812
		c-10.719-4.283-20.418-3.261-29.183,5.477c-10.565,10.534-13.727,10.354-25.853,1.911c-3.381-2.354-6.924-4.575-10.645-6.323
		c-11.646-5.472-19.996-3.68-28.474,5.753c-6.585,7.326-8.431,7.475-15.812,1.487c-3.413-2.769-6.694-5.801-10.439-8.038
		c-10.229-6.111-14.62-5.156-21.912,4.284c-3.715,4.809-7.321,6.434-11.705,0.672c-1.87-2.458-4.387-4.414-6.51-6.692
		c-5.429-5.83-10.695-8.017-19.137-4.179c-15.918,7.235-30.88,2.906-43.343-10.093c-3.711-3.871-8.254-6.597-13.825-3.053
		c-5.109,3.251-4.311,7.56-2.209,12.24c34.471,76.77,59.368,156.726,79.101,238.382c6.502,26.908,12.645,53.904,19.001,80.847
		c1.651,6.999,6.474,10.606,13.389,10.891c28.527,1.174,57.06,2.867,85.598,3.024c75.805,0.42,151.616,0.426,227.42-0.075
		c17.3-0.114,34.603-2.769,51.85-4.732c2.216-0.253,5.385-3.084,5.951-5.278c13.966-54.078,26.521-108.55,41.711-162.276
		c12.658-44.771,28.142-88.752,42.863-132.921c2.996-8.988,8.354-17.172,12.21-25.909c0.777-1.762,0.281-4.685-0.711-6.471
		c-1.146-2.063-3.489-3.463-5.574-5.393c42.075-8.076,63.99-42.872,57.415-86.366c-7.874-52.091-40.394-83.575-84.407-106.198
		c-13.492-6.934-27.728-12.424-41.554-18.545c14.175-18.953,13.396-43.353-2.436-64.899c-14.084-19.168-34.013-29.312-56.33-35.034
		c-37.29-9.563-71.96-24.821-103.936-46.185c-12.046-8.048-22.74-17.654-27.509-31.785c-1.702-5.043-2.576-11.83-0.49-16.242
		c1.79-3.787,8.225-6.876,12.833-7.219c2.407-0.179,6.888,5.886,7.699,9.71c3.025,14.255,13.688,18.422,25.188,9.098
		c10.438-8.463,13.768-20.955,8.45-35.215c-8.031-21.545-23.192-35.823-45.338-42.49c-1.676-0.504-3.288-1.215-4.931-1.83
		c-9.87,0-19.739,0-29.609,0c-0.593,0.457-1.125,1.178-1.788,1.332c-21.797,5.023-36.054,19.124-44.416,38.955
		c-5.299,12.566-9.162,25.866-12.387,39.148c-5.784,23.825-19.922,39.942-42.266,49.262c-7.886,3.289-15.959,6.156-23.72,9.712
		c-14.227,6.519-26.093,15.387-28.955,32.085c-25.827-8.312-49.161-4.518-68.136,15.222c-20.045,20.853-17.575,44.742-5.482,69.066
		c-28.111,3.789-55.262,7.905-68.657,35.87c-12.343,25.771-11.509,52.162,0.95,78.006c-24.353,10.654-24.353,10.654-33.959,28.728
		C93.833,427.324,93.833,433.558,93.833,439.791z M684.912,526.289c-0.746,2.838-0.997,4.006-1.357,5.14
		c-14.689,46.082-30.561,91.828-43.766,138.332c-13.978,49.224-25.372,99.182-38.151,148.753c-0.513,1.992-3.555,4.571-5.594,4.739
		c-21.95,1.802-43.942,4.539-65.909,4.425c-89.281-0.459-178.558-1.912-267.838-2.693c-6.5-0.057-8.269-2.859-9.521-8.226
		c-12.118-51.908-25.902-103.349-42.858-153.923c-10.6-31.614-20.233-63.556-31.044-95.096
		c-5.729-16.714-13.047-32.883-19.648-49.299c7.058,1.13,12.974,3.012,18.136,6.138c4.62,2.798,8.171,2.821,12.866,0.251
		c8.17-4.474,16.639-7.351,23.833,2.186c1.206,1.599,3.155,2.67,4.846,3.865c11.091,7.842,19.778,6.51,28.204-4.277
		c0.942-1.207,1.906-2.396,2.997-3.766c5.039,4,9.614,8.2,14.736,11.571c9.144,6.018,20.095,5.325,26.536-1.106
		c11.745-11.729,11.743-11.726,25.564-2.264c1.283,0.878,2.624,1.672,3.942,2.497c13.58,8.513,25.64,7.5,37.63-3.158
		c9.776-8.69,14.091-8.943,24.801-1.403c1.687,1.188,3.341,2.431,4.933,3.743c10.608,8.752,21.686,10.468,33.342,2.139
		c7.43-5.309,14.446-6.485,23.363-2.042c11.212,5.589,22.472,4.224,32.353-4.804c9.908-9.051,10.273-9.024,21.777-1.193
		c11.382,7.747,26.525,10.043,37.347-1.887c5.29-5.832,10.649-6.479,17.207-0.411c9.229,8.541,19.173,8.819,29.904,2.705
		c3.372-1.922,7.054-3.324,10.327-5.389c4.864-3.067,8.571-2.187,13.004,1.427c10.283,8.384,14.79,8.448,25.545,0.959
		c6.65-4.631,13.082-5.541,20.216-1.347C662.391,528.613,672.395,533.347,684.912,526.289z M689.896,484.74
		c-1.376-0.163-4.729-0.487-8.061-0.966c-19.146-2.753-27.498-12.628-26.602-32.034c0.715-15.459-5.518-27.643-16.76-37.648
		c-12.109-10.777-26.434-17.728-42.066-20.843c-20.795-4.146-41.896-6.764-62.87-10c-32.519-5.018-64.985-10.398-97.573-14.914
		c-60.418-8.373-118.54-24.822-174.582-48.679c-17.557-7.474-33.972-17.053-45.546-32.858
		c-11.849-16.179-17.328-34.024-8.789-53.293c8.506-19.197,25.185-28.324,45.056-31.758c4.555-0.788,10.065,0.179,14.3,2.142
		c7.634,3.539,14.586,8.528,21.914,12.753c10.085,5.814,19.83,12.475,30.466,17.033c39.393,16.875,80.686,27.859,122.25,37.87
		c33.792,8.138,67.623,15.36,102.698,15.965c26.104,0.451,52.511,1.022,78.168,5.262c33.434,5.525,63.708,20.249,89.405,42.83
		c30.499,26.8,42.653,60.998,35.196,100.663C740.403,468.701,721.193,484.315,689.896,484.74z M440.538,496.039
		c-27.565-0.313-57.827-7.18-87.555-16.642c-36.736-11.695-73.272-24.025-110.045-35.601c-20.461-6.44-41.924-10.188-61.708-18.183
		c-35.296-14.265-47.683-35.794-45.166-73.772c1.416-21.367,7.844-40.965,29.156-50.413c11.166-4.95,23.707-6.882,35.732-9.728
		c2.014-0.476,5.296,0.658,6.768,2.21c19.639,20.714,44.558,32.689,70.49,42.979c53.191,21.105,108.124,35.604,164.823,43.51
		c41.316,5.762,82.657,11.421,123.832,18.083c16.508,2.671,32.818,7.208,48.803,12.222c10.394,3.26,18.945,10.427,21.782,21.625
		c4.418,17.435-1.122,32.794-12.479,45.979c-2.804,3.255-7.669,5.493-11.989,6.548c-15.762,3.848-30.835,1.399-45.008-6.597
		c-14.26-8.047-28.723-9.845-43.603-1.438C499.562,490.839,472.566,495.876,440.538,496.039z M483.345,87.521
		c-6.46-4.702-11.846-9.702-18.135-12.956c-10.474-5.417-23.351-3.729-29.723,3.274c-7.911,8.694-6.734,18.497-2.337,28.331
		c6.415,14.343,16.506,25.767,29.069,34.911c30.248,22.018,63.645,37.755,99.114,49.427c15.443,5.082,31.173,9.882,45.707,16.989
		c18.299,8.947,25.448,25.936,25.762,45.634c0.252,15.801-11.602,27.03-25.618,26.101c-26.646-1.766-53.335-2.865-79.98-4.617
		c-14.217-0.936-28.778-1.015-42.496-4.328c-43.277-10.452-86.325-21.898-129.267-33.671c-22.059-6.048-43.234-14.56-61.515-28.976
		c-7.864-6.202-8.739-14.169-1.326-20.928c3.958-3.609,8.674-6.59,13.464-9.044c11.765-6.028,23.625-11.915,35.711-17.258
		c18.289-8.084,30.047-21.654,35.805-40.616c3.608-11.885,6.967-23.847,10.673-35.7c5.247-16.783,13.838-31.161,29.313-40.704
		c26.886-16.581,60.418-5.295,69.327,23.414C489.317,74.619,488.113,81.567,483.345,87.521z M324.028,479.126
		c-0.03,1.382-0.061,2.763-0.091,4.144c-8.763,1.587-17.467,3.84-26.3,4.618c-16.15,1.422-32.066-0.498-47.556-5.575
		c-22.867-7.498-46.25-10.695-70.404-10.039c-17.878,0.486-35.898-0.752-52.301-9.233c-10.933-5.652-17.568-14.609-17.209-27.367
		c0.339-12.086,9.826-25.261,20.752-28.528c2.718-0.812,6.843,0.262,9.317,1.945c10.23,6.959,19.187,16.518,30.258,21.349
		c18.849,8.227,38.822,13.982,58.532,20.107C260.604,460.359,292.352,469.628,324.028,479.126z"/>
	<path fill-rule="evenodd" clip-rule="evenodd" d="M555.117,817.004c2.076-12.161,4.125-23.832,6.055-35.521
		c11.849-71.81,23.678-143.621,35.493-215.436c1.431-8.695,2.548-17.446,4.181-26.102c0.943-5.001-1.185-7.914-5.653-8.046
		c-1.459-0.043-4.021,3.761-4.413,6.086c-8.89,52.613-17.557,105.265-26.244,157.912c-6.031,36.542-11.92,73.108-18.146,109.618
		C545.271,812.071,546.274,816.178,555.117,817.004z"/>
	<path fill-rule="evenodd" clip-rule="evenodd" d="M526.974,819.729c1.61-18.212,3.18-35.733,4.705-53.257
		c3.983-45.738,7.962-91.475,11.914-137.214c2.568-29.719,5.046-59.445,7.662-89.159c0.6-6.812-3.082-8.478-9.508-8.531
		c-1.214,12.927-2.472,25.484-3.562,38.057c-5.694,65.635-11.358,131.272-17,196.913c-1.244,14.474-2.224,28.972-3.585,43.434
		C517.013,816.194,519.643,819.069,526.974,819.729z"/>
	<path fill-rule="evenodd" clip-rule="evenodd" d="M637.581,543.377c-0.795,1.771-2.254,4.038-2.858,6.516
		c-7.129,29.16-14.139,58.351-21.162,87.536c-12.836,53.333-25.658,106.67-38.497,160.001c-0.242,1.005-1.201,2.324-0.85,2.899
		c1.466,2.398,3.305,4.568,5.007,6.822c1.817-1.551,4.808-2.811,5.28-4.699c7.779-31.13,15.255-62.337,22.773-93.531
		c12.431-51.577,24.844-103.157,37.259-154.737C646.103,547.66,643.652,542.937,637.581,543.377z"/>
	<path fill-rule="evenodd" clip-rule="evenodd" d="M485.213,815.221c0.823-16.706,1.697-32.743,2.389-48.788
		c2.292-53.173,4.497-106.35,6.779-159.522c0.946-22.047,1.949-44.093,3.049-66.133c0.308-6.162-2.152-9.301-9.287-9.135
		c-0.39,3.548-0.98,7.063-1.132,10.598c-2.294,53.433-4.499,106.87-6.79,160.304c-1.468,34.237-2.978,68.473-4.626,102.702
		C475.292,811.536,477.165,815.281,485.213,815.221z"/>
	<path fill-rule="evenodd" clip-rule="evenodd" d="M393.572,818.418c-0.922-15.36-1.716-30.011-2.697-44.646
		c-2.895-43.212-5.867-86.417-8.801-129.624c-2.319-34.156-4.67-68.31-6.902-102.47c-0.385-5.895-2.196-10.021-10.202-10.028
		c0.728,12.35,1.345,24.362,2.159,36.361c2.353,34.671,4.811,69.335,7.178,104.005c3.128,45.799,6.278,91.598,9.232,137.408
		C383.927,815.465,387.301,817.268,393.572,818.418z"/>
	<path fill-rule="evenodd" clip-rule="evenodd" d="M431.632,537.761c0,8.458-0.157,15.933,0.024,23.399
		c1.926,79.138,3.932,158.271,5.823,237.411c0.15,6.312,1.285,11.259,9.618,11.298c0-9.855,0.205-19.374-0.033-28.885
		c-1.342-53.447-2.812-106.893-4.193-160.339c-0.623-24.13-1.259-48.261-1.626-72.396
		C441.148,541.899,438.402,538.817,431.632,537.761z"/>
	<path fill-rule="evenodd" clip-rule="evenodd" d="M274.987,813.395c-2.401-10.103-4.606-19.836-7.031-29.516
		c-20.642-82.398-41.346-164.782-61.944-247.192c-1.383-5.531-3.605-9.479-11.225-9.193c2.348,9.746,4.493,18.96,6.79,28.134
		c20.708,82.687,41.453,165.362,62.148,248.052C265.09,809.127,266.361,814.417,274.987,813.395z"/>
	<path fill-rule="evenodd" clip-rule="evenodd" d="M304.728,815.187c-2.541-15.273-4.902-29.78-7.374-44.269
		c-12.286-72.01-24.598-144.014-36.915-216.017c-0.786-4.594-1.082-9.406-2.744-13.673c-1.34-3.438-4.401-6.205-6.699-9.27
		c-1.082,0.531-2.162,1.062-3.243,1.594c1.201,7.712,2.307,15.44,3.618,23.133c14.095,82.735,28.229,165.465,42.331,248.198
		C294.646,810.414,296.649,814.808,304.728,815.187z"/>
	<path fill-rule="evenodd" clip-rule="evenodd" d="M300.03,531.608c3.294,19.974,6.42,39.072,9.596,58.161
		c9.652,58.023,19.33,116.044,28.985,174.065c2.169,13.035,4.299,26.075,6.431,39.114c0.883,5.398,3.316,9.157,10.836,9.381
		c-1.171-7.389-2.222-14.351-3.383-21.297c-13.923-83.3-27.904-166.592-41.711-249.912
		C309.784,535.087,307.211,531.96,300.03,531.608z"/>
	<path fill-rule="evenodd" clip-rule="evenodd" d="M685.67,467.77c3.252,2.407,4.84,4.165,6.814,4.952
		c13.36,5.323,26.997,1.99,35.063-10.312c15.216-23.207,17.055-48.403,7.875-74.365c-0.972-2.748-4.298-4.663-6.531-6.964
		c-0.691,0.48-1.383,0.96-2.074,1.44c1.349,4.517,3.169,8.952,3.962,13.564c3.006,17.48,1.623,34.701-4.725,51.294
		c-7.147,18.687-16.245,23.569-35.965,20.06C689.41,467.316,688.67,467.529,685.67,467.77z"/>
	<path fill-rule="evenodd" clip-rule="evenodd" d="M332.782,328.608c-2.989-1.354-5.864-3.11-8.985-3.997
		c-28.645-8.138-55.423-20.331-79.988-37.14c-5.716-3.911-10.984-8.747-15.614-13.913c-7.326-8.177-9.587-17.504-4.23-27.995
		c0.775-1.52-0.794-4.237-1.279-6.399c-2.318,0.85-5.737,1.012-6.77,2.666c-5.38,8.61-4.687,17.937,1.256,25.519
		c6.475,8.261,13.75,16.477,22.262,22.453c26.472,18.584,55.542,32.119,86.862,40.57c1.701,0.459,3.506,0.523,5.263,0.771
		C331.967,330.298,332.375,329.453,332.782,328.608z"/>
	<path fill-rule="evenodd" clip-rule="evenodd" d="M670.215,451.534c-4.862-17.351-0.932-37.551-18.039-50.924
		c-13.121-10.257-27.284-17.943-43.187-22.201c-0.422,0.772-0.845,1.545-1.268,2.318c2.416,1.439,4.736,3.08,7.267,4.279
		c7.708,3.654,15.724,6.719,23.206,10.775c15.006,8.135,20.481,21.853,21.288,38.142c0.19,3.847,0.588,7.94,2.102,11.387
		c1.307,2.974,4.336,5.19,6.604,7.742C668.863,452.547,669.539,452.04,670.215,451.534z"/>
	<path fill-rule="evenodd" clip-rule="evenodd" d="M542.16,457.84c-2.921-0.895-6.112-3.032-8.718-2.467
		c-10.533,2.284-21.944,3.483-31.123,8.544c-39.5,21.779-79.595,16.394-119.934,4.426c-9.821-2.914-18.899-8.325-28.335-12.554
		c-1.75-0.784-3.573-1.403-5.363-2.099c-0.405,0.565-0.811,1.13-1.215,1.694c2.086,1.789,3.957,3.943,6.29,5.311
		c23.492,13.774,49.375,19.258,76.052,22.928c28.643,3.94,54.938-1.376,80.385-14.651c8.026-4.188,17.678-5.261,26.587-7.754
		c1.673-0.468,3.353-0.91,5.029-1.365C541.931,459.183,542.046,458.512,542.16,457.84z"/>
	<path fill-rule="evenodd" clip-rule="evenodd" d="M192.607,411.89c-2.482-1.478-5.233-2.641-7.397-4.49
		c-7.453-6.369-15.53-12.268-21.849-19.647c-11.746-13.718-11.702-29.635-4.102-45.162c4.512-9.218,11.161-17.374,16.507-26.215
		c1.017-1.682,0.429-4.333,0.582-6.536c-2.333,0.082-5.835-0.801-6.822,0.394c-12.653,15.314-24.444,31.15-23.179,52.63
		c0.814,13.82,7.694,24.696,17.596,33.547c7.873,7.037,16.661,13.048,25.043,19.515C190.193,414.58,191.4,413.235,192.607,411.89z"
		/>
	<path fill-rule="evenodd" clip-rule="evenodd" d="M608.598,232.099c7.884,17.288,5.564,24.544-12.101,26.905
		c-20.849,2.787-42.262,2.975-63.331,2.045c-20.304-0.896-40.483-4.652-61.686-6.225c2.632,1.506,5.111,3.893,7.918,4.374
		c15.029,2.574,30.076,5.876,45.235,6.664c24.491,1.273,49.078,1.119,73.613,0.779c5.369-0.074,11.112-2.723,15.951-5.474
		c10.058-5.719,10.122-21.054,0.463-27.541C613.332,232.734,611.383,232.764,608.598,232.099z"/>
	<path fill-rule="evenodd" clip-rule="evenodd" d="M327.808,196.761c0.967-13.761,10.195-18.263,21.249-20.782
		c1.762-0.401,3.503-0.911,5.281-1.213c24.711-4.206,37.498-4.678,44.475-44.448c0.582-3.313,1.087-6.641,1.584-9.968
		c0.918-6.149,0.369-6.847-7.294-8.642c-1.014,6.387-2.061,12.719-3.019,19.064c-3.343,22.147-13.025,32.278-34.772,36.9
		c-7.562,1.607-15.539,2.834-22.262,6.299c-5.009,2.582-9.141,7.992-12.131,13.049C317.979,191.993,320.472,195.9,327.808,196.761z"
		/>
	<path fill-rule="evenodd" clip-rule="evenodd" d="M121.491,422.699c-11.156,13.679,4.549,34.604,22.52,37.342
		c-3.306-2.942-5.021-4.77-7.021-6.196c-8.028-5.725-13.904-12.122-10.771-23.284C126.74,428.696,123.419,425.753,121.491,422.699z"
		/>
</g>
</svg>
